<svg width="1954" height="2199" viewBox="0 0 1954 2199" fill="none" xmlns="http://www.w3.org/2000/svg">
<path d="M1261.05 443.81C1263.25 430.221 1270.26 373.84 1275.33 367.7C1298.81 382.693 1316.8 391.909 1339.91 409.847C1455.83 499.846 1529.1 615.761 1569.51 766.141C1580.59 815.624 1587.26 859.308 1588.34 910.624C1588.51 918.885 1588.87 935.739 1587.73 943.299C1587.73 976.167 1583.06 1010.71 1577.1 1042.85C1574.76 1055.46 1571.36 1068.42 1569.14 1080.54C1554.87 1134.13 1539.49 1176.35 1514.75 1225.14C1507.66 1239.13 1496.35 1255.86 1490.98 1267.15C1476.85 1287.49 1465.76 1304.49 1450.42 1324.29C1406.6 1380.23 1355.39 1428.24 1298.6 1466.65C1276.3 1481.53 1256.3 1491.29 1234.88 1504.56L1234.24 1505.01C1223.65 1509.45 1212.28 1515.49 1201.54 1520.33C1176.3 1531.7 1150.35 1540.96 1123.91 1548.06C1112.78 1551.05 1100.27 1553.19 1089.82 1556.13C1086.83 1556.74 1085.14 1557.43 1082.24 1556.38C1079.67 1547.55 1074.6 1512.26 1072.72 1501.37C1066.03 1462.46 1058.99 1423.62 1051.58 1384.87C1048.08 1366.89 1043.84 1342.8 1038.85 1325.71C1037.79 1317.23 1032.55 1299.12 1030.13 1290.21C1024.78 1270.77 1019.62 1251.26 1014.66 1231.69C1008.29 1206.49 1004.87 1192.82 1013.34 1167.48C1020.36 1146.29 1028.25 1125.36 1036.54 1104.75C1054.95 1059 1061.37 1018.01 1104.88 994.444C1113.77 990.083 1125.2 986.475 1134.77 982.54C1141.42 979.252 1146.28 975.218 1152.05 970.378C1157.75 964.21 1161.41 959.932 1165.66 952.477C1174.39 940.82 1180.29 918.84 1183.77 904.556L1190.15 866.448L1216.4 709.927C1217.92 703.904 1218.74 696.317 1219.62 690.028C1220.53 687.304 1223.09 671.482 1223.71 667.754L1231.67 619.243L1261.05 443.81Z" fill="#FBF5E9"/>
<path d="M1261.05 443.81C1263.25 430.221 1270.26 373.84 1275.33 367.7C1298.81 382.693 1316.8 391.909 1339.91 409.847C1455.83 499.846 1529.1 615.761 1569.51 766.141C1580.59 815.624 1587.26 859.308 1588.34 910.624C1588.51 918.885 1588.87 935.739 1587.73 943.299C1586.85 936.754 1587.4 925.604 1586.75 918.012C1583.68 882.281 1582.58 845.499 1574.25 810.7C1573.44 807.276 1567.48 796.382 1565.64 792.928C1566.95 791.977 1568.37 792.629 1570.39 792.88L1571.22 791.317L1570.06 787.367C1562.2 784.709 1568.16 785.589 1562.75 782.518L1562.58 781.606L1563.91 781.437L1568.12 785.478L1569.08 784.547C1568.14 771.562 1558.34 737.704 1550.91 725.967C1549.5 723.738 1540.75 724.338 1537.32 724.239C1537.25 720.316 1548.64 720.478 1550.88 715.583C1549.49 713.2 1547.84 712.914 1545.37 711.832L1544.27 711.364L1547.11 708.983L1544.53 708.603C1545.11 706.968 1545.47 706.598 1546.47 705.254L1545.47 703.71C1539.2 700.928 1515.95 712.799 1509.96 712.955L1508.05 710.306C1510.04 707.714 1536.97 701.991 1543.11 699.247C1546.75 693.067 1521.87 654.652 1521.25 647.273C1521 644.248 1521.73 644.415 1519.93 641.579L1517.74 643.485C1516.85 640.534 1516.68 640.1 1517.51 637.117C1516.88 633.564 1512.58 629.081 1510.16 626.315L1508.83 624.816L1510.89 622.945C1504.06 618.005 1502.25 620.762 1495.68 624.737C1491.83 624.358 1493.62 625.073 1490.34 621.833C1495.29 616.095 1499.68 611.869 1500.79 603.973C1499.36 601.2 1496.76 598.916 1496.85 599.141C1495.48 595.629 1495.22 590.734 1492.38 588.04C1490.4 588.344 1489.53 588.428 1487.53 588.455L1486.29 586.933C1488.39 584.132 1488.17 585.238 1488.83 582.076C1486.99 580.048 1482.21 570.977 1479.7 567.026C1475.47 560.38 1464.76 550.813 1462.2 546.48L1464.33 546.042C1457 534.23 1459 542.857 1452.72 539.782C1445.17 536.088 1445.68 526.572 1444.12 519.077C1442.94 513.348 1436.48 513.704 1432.84 510.469C1434.34 508.948 1434 509.381 1435.23 507.466C1400.6 467.65 1365.1 431.746 1322.55 402.994C1316.43 398.859 1309.24 395.309 1304.26 389.974C1302.22 387.797 1303.08 387.313 1299.88 386.508L1297.84 388.838C1292.1 383.985 1283.02 375.341 1276.11 373.668C1272.09 392.171 1269.29 421.869 1263.76 440.974C1262.86 441.919 1261.95 442.865 1261.05 443.81Z" fill="#F0EADE"/>
<path d="M1482.92 608.292C1483.33 608.241 1484.58 608.669 1485.05 608.803C1486.68 617.326 1480.13 618.71 1474.71 620.614L1472.46 620.234L1471.84 618.412C1474.71 611.125 1476.67 610.345 1482.92 608.292Z" fill="#E4DCCC"/>
<path d="M1354.76 579.025L1355.37 581.031C1352.84 584.837 1350.26 584.982 1346.63 583.867L1344.91 582.249L1345.79 580.751C1348.54 580.515 1350.32 580.401 1353.01 579.579L1354.76 579.025Z" fill="#F0EADE"/>
<path d="M771.235 80.266C763.538 101.186 754.823 127.058 749.486 148.18C745.942 162.206 767.501 170.117 776.038 153.483C779.392 146.948 786.599 139.074 790.275 129.859C797.672 111.319 802.142 89.7043 814.746 75.0001C822.852 66.3363 845.263 72.8658 856.622 73.5004L857.786 73.5556C845.938 116.337 832.99 111.118 844.229 160.952C851.247 155.867 861.89 148.878 867.369 141.775C879.987 125.417 882.264 97.4149 893.34 80.7151C901.95 67.7172 927.319 76.0558 939.822 79.0735C932.953 100.903 918.504 122.06 925.471 144.721L928.608 155.093C950.058 145.331 955.532 143.157 964.48 116.696C968.008 106.262 973.321 93.002 977.471 82.607C978.493 82.7213 979.515 82.8535 980.528 83.0036C996.469 85.4834 1014.96 90.3235 1031.11 93.9385C1107.26 110.98 1190.74 140.836 1240.81 212.018C1265.36 246.933 1269.48 289.325 1264.33 332.442C1263.86 343.39 1262.33 365.323 1275.33 367.7C1270.26 373.84 1263.25 430.221 1261.05 443.81L1231.67 619.243L1223.71 667.754C1223.09 671.482 1220.53 687.304 1219.62 690.028C1218.74 696.317 1217.92 703.904 1216.4 709.927L1190.15 866.448C1190.31 866.7 1181.98 849.608 1180 846.159L1179.82 845.613C1177.7 838.718 1174.16 829.395 1170.78 823.217C1164.82 820.373 1159.41 827.42 1156.58 809.951C1155.9 805.703 1156.51 803.148 1158.77 799.595C1164.47 800.089 1166.13 803.199 1170.53 797.406C1170.06 796.126 1169.6 794.846 1169.14 793.566L1170.62 791.596C1160.86 785.722 1148.09 781.453 1137.16 785.121C1133.93 786.22 1130.75 787.439 1127.6 788.773C1129.92 802.577 1129.87 807.08 1140.41 816.116C1150.87 825.072 1172.73 825.686 1174.16 842.848C1174.14 854.869 1173.93 864.397 1172.15 876.313C1167.54 901.029 1163.76 918.963 1152.11 940.755C1151.31 941.967 1148.73 945.687 1148.2 946.78C1139.35 957.483 1135.47 961.51 1124.7 969.541C1119.71 972.724 1115.68 975.287 1110.47 978.021C1078.73 994.183 1013.3 1008.95 978.777 998.059C935.45 984.387 924.298 952.796 904.047 914.229L900.875 908.341C885.832 881.12 862.272 848.317 851.071 820.648C841.81 804.511 826.134 800.957 823.458 823.1C821.266 841.231 831.854 859.769 839.828 874.152C841.431 878.458 845.071 884.882 847.243 889.017C866.878 926.413 887.886 962.637 904.687 1001.86C895.455 995.495 878.987 989.86 871.706 982.801C862.492 973.868 850.167 952.318 842.909 940.657C823.051 908.787 803.646 876.563 784.699 843.997L780.962 837.714L774.604 826.947L769.598 814.938C758.437 805.462 752.709 804.506 740.651 798.41C737.899 809.943 733.798 820.775 739.255 831.392C739.625 832.106 740.006 832.813 740.4 833.511L742.98 839.256L746.411 846.118L751.711 856.525C774.796 900.491 793.668 936.597 821.497 977.004L814.119 985.45C783.326 961.854 773.44 961.132 752.687 922.784C738.351 896.292 720.332 868.871 706.173 841.685C699.372 828.626 689.92 813.101 680.685 802.166C677.051 798.232 663.446 790.553 658.013 787.097C652.905 814.826 650.458 812.682 663.207 839.073C673.053 859.456 683.761 880.342 693.486 900.771C701.228 917.061 708.546 933.603 715.43 950.375C705.04 944.051 680.459 930.404 673.146 920.634C646.962 885.647 627.92 841.24 605.134 803.358C600.534 795.71 583.294 771.069 577.134 768.888C574.494 769.373 573.58 769.618 570.868 769.596C570.365 765.977 571.873 756.322 572.379 752.208C574.907 740.396 577.224 717.364 578.827 704.534C587.593 705.016 595.724 705.481 604.525 705.377C612.328 705.625 648.735 707.303 654.169 706.492C721.86 709.356 778.94 708.715 847.02 720.641C874.802 725.785 902.43 731.918 929.869 739.029C939.582 741.444 964.471 748.346 972.975 749.332C995.767 755.992 1016.25 762.074 1038.99 754.294C1042.4 753.07 1041.22 754.198 1043.07 751.439C1042.76 743.032 1034.05 730.389 1027.07 727.126C1024.28 725.426 1015.5 722.023 1012.06 720.601L1005.68 718.697C1000.26 716.364 995.536 714.93 989.956 713.18C904.145 683.281 789.395 671.491 698.762 672.076C692.627 670.969 677.913 670.879 671.343 670.734C654.073 670.374 636.801 670.173 619.527 670.131C613.135 669.213 595.651 669.333 588.616 669.119C587.326 659.18 586.109 654.442 588.736 644.674L591.776 640.499C606.471 629.057 670.546 633.107 692.401 632.594C718.613 633.866 744.407 633.437 771.077 635.032C842.098 638.78 912.613 650.45 981.585 669.87C983.833 670.567 990.071 672.689 992.053 673.016C995.696 674.379 998.539 675.459 1002.27 676.44L1005.27 677.284C1016.32 681.577 1027.44 686.436 1039.26 682.882C1043.16 682.388 1052.97 679.766 1057.23 678.773C1054.22 674.124 1049.77 667.562 1046.28 663.519C1042.12 656.229 1037.54 652.891 1030.48 650.169C1026.69 648.65 1022.87 647.206 1019.02 645.839L1009.52 642.482C999.65 639.029 990.16 636.182 980.181 633.208C867.727 600.689 740.559 593.303 624.436 600.513C620.754 600.772 616.791 600.959 613.146 601.377C607.316 600.387 602.944 603.647 598.054 600.108L597.911 596.256C597.624 585.753 597.785 582.571 600.427 572.919C605.608 565.1 610.769 563.843 618.583 561.517C693.437 557.455 786.409 559.326 860.866 569.416C883.486 572.469 906.029 576.234 928.457 580.705C934.961 582.063 962.783 589.157 967.181 589.346C979.07 592.884 990.924 596.578 1002.74 600.426C1006.46 601.651 1017.48 605.696 1020.76 606.405C1039.42 614.716 1052.73 611.005 1070.51 604.197C1061.9 586.276 1057.64 580.453 1040.07 576.999C1028.26 573.908 1016.39 571.146 1004.47 568.715C999.188 567.407 993.901 565.983 988.552 565.189C982.429 563.528 976.058 562.098 969.874 560.683C896.476 543.903 822.604 527.78 747.537 525.098C740.844 524.859 734.207 524.483 727.538 524.906C721.399 523.465 691.242 523.91 683.9 523.908L608.899 523.219C610.106 514.552 610.462 507.279 610.789 498.545C611.093 496.699 611.081 492.46 611.136 490.392C738.553 479.861 915.119 486.691 1034.95 533.447C1051.85 541.366 1066.52 535.394 1082.79 530.116C1066.08 504.297 1057.14 500.067 1028.56 493.369C1014.01 487.128 982.083 479.633 967.075 476.104C854.031 449.517 738.036 449.878 623.065 452.481C621.78 445.89 619.808 438.662 620.722 431.897C621.358 427.186 623.592 422.922 627.168 420.29C645.028 407.145 798.894 413.904 828.828 416.007C855.562 418.05 882.243 420.904 908.837 424.566C945.251 429.845 972.877 437.123 1008.06 445.483C1015.92 448.383 1026.83 451.198 1035.18 453.966C1061.89 462.823 1066.78 465.913 1093.43 456.552C1090.42 451.44 1082.04 436.818 1078.04 434.031C1063.76 424.086 1027.6 414.125 1011.55 410.29C997.953 405.344 965.36 398.914 950.742 396.009C844.743 374.94 736.681 374.393 629.504 381.868C630.962 369.761 633.94 354.171 635.973 341.914C643.397 341.307 651.077 341.151 658.57 340.856C769.768 336.482 882.187 337.487 991.386 364.289C1003.42 367.241 1015.29 370.722 1027.22 373.52C1036.07 376.544 1044.97 379.409 1053.9 382.114C1080.73 392.397 1081.31 392.412 1107.06 380.394C1103.12 372.065 1100.44 365.891 1094.56 359.1C1087.46 356.451 1079.53 354.392 1072.22 352.319C1068.31 351.091 1065.01 350.237 1061.03 349.3C1057.56 348.076 1053.49 346.939 1049.93 345.837C1013.84 336.335 977.116 324.52 940.293 319.379C841.192 305.54 740.347 304.52 640.68 299.449C642.128 289.07 644.033 278.694 645.837 268.378C652.019 267.667 658.629 267.443 664.563 267.051C808.663 257.541 952.182 267.061 1090.87 314.098C1094.22 315.235 1113.42 308.029 1118.82 306.06C1114.27 297.924 1110.38 290.417 1104.62 283.255C1087.61 275.635 1063.98 271.626 1046.03 265.886C961.174 238.758 877.306 232.845 789.482 229.924C744.307 228.471 699.124 227.335 653.937 226.517L660.356 166.652C697.665 184.888 697.173 154.757 707.379 125.217C710.221 116.805 714.38 109.034 719.659 102.273C734.206 84.0151 751.003 81.6636 771.235 80.266ZM1188.83 818.158L1190.2 818.681C1191.37 817.343 1193.55 814.86 1193.66 812.973C1194.61 797.165 1201.26 773.216 1201.03 758.539C1199.82 757.246 1200.51 757.521 1199.08 757.452C1198.14 761.435 1195.18 762.46 1195.17 762.896C1194.31 779.312 1195.81 785.651 1186.89 800.169C1186.23 801.252 1192.41 807.824 1189.61 816.019C1189.36 816.738 1189.11 817.451 1188.83 818.158Z" fill="#FBF5E9"/>
<path d="M1256.27 365.532C1259.63 355.643 1261.92 342.993 1264.33 332.442C1263.86 343.39 1262.33 365.323 1275.33 367.7C1270.26 373.84 1263.25 430.221 1261.05 443.81L1231.67 619.243L1223.71 667.754C1223.09 671.482 1220.53 687.304 1219.62 690.028C1218.74 696.317 1217.92 703.904 1216.4 709.927L1190.15 866.448C1190.31 866.7 1181.98 849.608 1180 846.159L1179.82 845.613C1177.7 838.718 1174.16 829.395 1170.78 823.217C1164.82 820.373 1159.41 827.42 1156.58 809.951C1155.9 805.703 1156.51 803.148 1158.77 799.595C1164.46 800.089 1166.13 803.199 1170.53 797.406C1170.06 796.126 1169.6 794.846 1169.14 793.566L1170.62 791.596C1174.08 792.871 1177.91 794.754 1181.32 796.309C1181.98 794.993 1182.63 793.671 1183.26 792.343C1198.93 759.456 1173.18 757.446 1153.24 747.227C1140.09 740.486 1137.02 730.648 1132.72 716.218C1161 705.312 1159.18 710.404 1185.83 722.499C1188.18 723.568 1191.53 724.965 1194.1 724.761C1194.89 724.025 1195.73 723.361 1196.19 722.284C1211.52 685.523 1179.29 685.626 1159.08 673.053C1146.03 664.929 1144.09 658.771 1140.24 644.061C1163.29 633.273 1173.04 635.645 1194.65 649.399C1198.32 651.734 1204.43 654.683 1208.6 653.132C1211.77 647.516 1212.22 633.189 1209.96 627.082C1204.15 611.396 1184.66 607.805 1172.04 601.559C1156.64 593.941 1153.74 583.244 1147.82 567.281C1180.11 558.595 1188.21 567.042 1218.2 583.47L1218.86 581.756C1233.55 543.71 1208.41 539.113 1183.4 528.227C1166.27 520.772 1164.26 512.344 1157.92 494.913C1162.39 493.518 1170.48 490.865 1174.53 490.316C1191.33 488.044 1213.43 501.756 1228.9 509.648C1254.06 469.251 1216.49 465.676 1191.77 451.525C1175.27 442.071 1175.8 437.141 1170.33 418.97C1203.12 411.279 1213.26 420.746 1244.17 435.278L1253.3 425.3C1246.78 415.931 1244.22 408.082 1235.77 399.076C1219.73 381.957 1196.64 383.742 1183.83 364.297C1180.46 359.191 1177.39 351.296 1174.38 345.344C1193.61 339.418 1205.7 339.576 1223.88 348.779C1234.74 354.283 1245.58 359.477 1256.27 365.532ZM1188.83 818.158L1190.2 818.681C1191.37 817.343 1193.55 814.86 1193.65 812.973C1194.61 797.165 1201.26 773.216 1201.03 758.539C1199.82 757.246 1200.51 757.521 1199.08 757.452C1198.14 761.435 1195.18 762.46 1195.17 762.896C1194.31 779.312 1195.81 785.651 1186.89 800.169C1186.23 801.252 1192.41 807.824 1189.61 816.019C1189.36 816.738 1189.11 817.451 1188.83 818.158Z" fill="#D0D0D0"/>
<path d="M616.697 356.599C614.868 379.814 608.232 409.086 605.892 433.448C602.714 449.072 600.908 466.853 598.312 482.786C593.31 509.394 588.518 541.078 584.638 568.051C582.915 578.658 575.645 620.248 575.479 628.625C570.833 645.811 567.407 682.196 563.845 701.006C562.387 708.703 556.004 752.467 556.105 758.772C552.628 804.684 560.576 837.592 587.507 873.66C616.6 912.626 661.787 938.597 703.288 957.255C715.661 962.818 731.119 967.867 741.349 976.944C748.424 983.222 749.192 991.889 748.158 1001.54C744.414 1036.5 737.745 1071.21 735.036 1106.38C731.501 1106.39 728.752 1105.81 726.097 1108.14C725.534 1112.37 730.426 1116.91 730.172 1118.31C726.781 1137.07 732.976 1158.1 740.858 1175.03C745.099 1184.14 760.336 1194.11 765.613 1202.55C764.772 1205.59 762.995 1206.79 760.811 1208.93C762.817 1210.26 762.067 1209.79 764.715 1209.89L767.007 1211.69C757.599 1219.07 752.324 1226.3 751.763 1239.81C750.676 1265.96 753.034 1292.74 754.242 1318.95L760.565 1455.3C761.885 1482.45 764.383 1518.74 763.859 1545.41C736.891 1542.13 701.302 1529.7 675.93 1518.86C528.862 1456.04 396.822 1328.77 331.791 1166.07C274.922 1023.37 270.072 861.269 318.284 714.596C370.421 559.839 482.583 424.618 616.697 356.599Z" fill="#FBF5E9"/>
<path d="M674.415 1228.9C676.49 1229.02 675.501 1228.7 677.364 1229.92C675.237 1233.33 668.052 1238.84 664.775 1242.07C647.404 1259.22 629.272 1273.5 610.47 1288.52C609.599 1289.2 610.237 1288.81 608.338 1289.02C608.866 1286.73 610.721 1284.97 612.412 1283.66C634.586 1266.48 654.117 1248.76 674.415 1228.9Z" fill="#E4DCCC"/>
<path d="M843.693 1745.06C835.798 1744.55 815.798 1744.32 809.923 1740.69C809.124 1736.82 809.125 1738.75 810.27 1734.69C816.895 1730.41 859.308 1731.16 870.099 1731.36C917.456 1732.21 1009.81 1718.25 1037.49 1772.91C1043.67 1785.03 1045.34 1799.41 1042.14 1812.92C1040.05 1821.5 1037.49 1825.4 1032.8 1832.13C1015.22 1850.69 1002.45 1855.04 980.465 1865.64C984.215 1866.93 996.282 1870.11 998.006 1871.02C1044.67 1887.12 1073.68 1911.08 1059.71 1974.11C1055.79 1991.78 1039.88 2006.83 1026.15 2015.18C1005.26 2026.81 982.527 2030.16 959.477 2031.6C944.851 2029.42 918.886 2032.64 902.892 2030.58C893.375 2031.09 875.801 2030.24 868.101 2031.26C861.57 2032.76 852.44 2031.31 845.585 2030.58C841.273 2031.15 823.016 2032.67 820.778 2029.49C806.42 2009.14 837.989 2012.44 843.473 2012.36L845.733 2010.6C849.207 2002.16 846.546 1931.73 845.889 1918.08C845.134 1902.28 847.466 1884.86 846.629 1869.26C845.046 1839.75 841.947 1811.19 843.501 1781.5C844.119 1769.68 842.826 1757.17 843.693 1745.06ZM920.504 2011.22C933.735 2012.56 943.491 2012.69 956.74 2011.45C973.099 2007.02 980.261 2001.97 985.584 1983.4C990.951 1948.87 992.897 1900.36 960.819 1880.13C948.05 1872.09 929.7 1871.75 915.661 1875.62C915.554 1881.06 915.519 1886.64 915.785 1892.07C917.776 1931.6 917.98 1971.77 920.504 2011.22ZM914.994 1861.23C929.309 1861.34 945.695 1862.36 958.704 1854.82C971.579 1845.18 973.588 1831.78 973.632 1815.49C973.748 1769.46 966.737 1740.31 918.851 1744.19C914.763 1745.12 914.257 1744.45 911.635 1747.1C911.182 1753.45 911.529 1759.79 911.671 1766.14C912.382 1797.85 914.283 1829.52 914.994 1861.23Z" fill="#FBF5E9"/>
<path d="M843.693 1745.06C847.873 1763.23 844.728 1827.25 849.068 1849.32C849.539 1851.71 868.483 1869.12 871.477 1871.77C873.668 1871.09 874.576 1870.64 876.676 1869.61C879.431 1870.16 887.629 1878.58 890.354 1881.16C889.119 1882.19 889.119 1881.88 887.369 1882.22L887.025 1883.77L888.879 1886.58L890.496 1886.75L893.775 1883.08C899.409 1885.31 893.544 1884.82 899.053 1887.77C902.759 1889.76 908.392 1894.71 910.818 1898.53L910.507 1900.04C893.668 1894.65 871.315 1879.39 855.761 1870.69C855.449 1868.77 855.184 1867 854.94 1865.06C852.019 1864.43 853.496 1864.41 850.486 1865.99C846.861 1872.95 852.633 1987.37 852.931 2004.98C853.074 2013.42 849.243 2013.12 843.473 2012.36L845.733 2010.6C849.207 2002.16 846.546 1931.73 845.889 1918.08C845.134 1902.28 847.466 1884.86 846.629 1869.26C845.046 1839.75 841.947 1811.19 843.501 1781.5C844.119 1769.68 842.826 1757.17 843.693 1745.06Z" fill="#FBF5E9"/>
<path d="M845.585 2030.58C850.815 2027.23 857.875 2030.03 861.107 2027.68C865.167 2024.71 867.778 2019.24 873.348 2015.38L874.68 2015.9C874.074 2022.59 871.981 2023.22 866.884 2028.08C874.478 2027.46 896.405 2026.84 902.892 2030.58C893.375 2031.09 875.802 2030.24 868.101 2031.26C861.57 2032.76 852.44 2031.31 845.585 2030.58Z" fill="#FBF5E9"/>
<path d="M956.74 2011.45C956.527 2010.27 955.994 2006.18 956.554 2005.75C962.107 2001.46 971.589 2000.29 974.974 1993.25C976.351 1990.4 976.271 1991.01 978.795 1989.12L977.773 1985.1C979.461 1983.23 982.492 1983.69 985.584 1983.4C980.261 2001.97 973.099 2007.02 956.74 2011.45Z" fill="#F0EADE" fill-opacity="0.0117647"/>
<path d="M265.16 1924.29C284.11 1870.07 299.289 1812.41 319.757 1758.92C325.488 1743.94 337.958 1738.6 351.276 1737.81C367.266 1736.87 384.064 1737.2 400.178 1737.14C411.717 1737.09 429.931 1733.59 440.43 1737.33L440.712 1738.75C434.462 1743.06 416.135 1744.11 408.105 1745.11C410.813 1803.96 413.088 1862.84 414.933 1921.73C415.563 1940.05 416.48 1994.04 418.939 2009.24C429.687 2009.8 441.825 2010.76 452.466 2010.33C452.779 2015.23 453.502 2018.86 451.767 2023.25C446.057 2029.08 438.026 2025.95 430.481 2026.03C420.821 2024.23 333.778 2024.73 323.987 2027L323.462 2011.35C334.616 2010.38 345.159 2010.44 356.715 2009.2C356.73 1998.96 356.332 1989.94 355.829 1979.75C353.517 1943.28 354.15 1903.67 351.906 1866.86C351.093 1853.53 351.898 1837.78 350.268 1824.83C351.025 1817.01 349.369 1790.93 348.931 1782.29C348.574 1772.01 348.301 1764.23 346.949 1753.99C343.277 1764.69 339.322 1775.71 336.128 1786.56L331.634 1799.97C328.105 1811.34 323.975 1823.78 320.913 1835.22C309.339 1871.21 298.216 1907.48 286.55 1943.45C279.06 1966.54 273.068 1990.49 264.968 2013.38C263.189 2018.65 259.477 2020.58 254.708 2018.43C247.937 2005.52 237.522 1975.39 231.675 1960.14L195.104 1866.48C191.224 1856.27 163.163 1781.65 159.7 1779.87C156.855 1791.52 165.076 1928.79 165.93 1949.44C166.522 1968.88 166.817 1990.09 168.239 2009.34C177.182 2010.27 186.159 2010.71 195.139 2010.65C195.213 2015.42 195.441 2021.07 195.315 2025.76C187.491 2025.91 180.202 2025.7 172.375 2025.43C154.056 2025.05 135.73 2025.24 117.421 2026.02C116.458 2023.01 116.085 2020.09 116.781 2016.99C120.95 2011.32 135.514 2011.48 142.605 2010.68L135.584 1837.87C134.443 1808.35 134.377 1777.87 132.609 1748.57C127.221 1748.13 109.747 1747.92 106.707 1743.28C107.719 1741.8 107.498 1741.65 108.846 1741.03C113.097 1739.09 199.721 1738.46 203.422 1740.21C210.043 1743.34 213.224 1754.7 215.455 1761.58C222.364 1778.49 232.139 1811.74 236.013 1830.05C245.385 1857.5 252.84 1899.08 265.16 1924.29Z" fill="#FBF5E9"/>
<path d="M215.456 1761.58C222.364 1778.49 232.14 1811.74 236.013 1830.05C229.239 1826.77 226.153 1807.2 222.439 1797.61C217.964 1796.03 211.043 1795.6 209.841 1789.34C208.421 1781.94 215.089 1784.42 217.241 1779.96C215.421 1771.98 214.639 1769.82 215.456 1761.58Z" fill="#F0EADE"/>
<path d="M1152.5 1840.99C1160.14 1840.22 1167.82 1840.02 1175.49 1840.37C1194.87 1841.08 1220.86 1843.15 1236.47 1857.76C1242.31 1863.23 1246.35 1869.98 1248.68 1878.12C1255.18 1900.77 1250.5 2003.4 1260.84 2012.75C1266.55 2017.91 1275.3 2012.65 1281.37 2011.34C1283.98 2010.77 1285.29 2010.68 1287.54 2012.24C1291.48 2033.53 1249.51 2034.2 1238.47 2032.18C1222.25 2029.21 1213.31 2026.98 1202.75 2012.14L1202.14 2012.87C1181.25 2038.47 1138.01 2035.96 1111.67 2024.6C1093.21 2014.07 1084.6 1995.39 1091.56 1972.52C1101.99 1938.24 1153.82 1939.33 1178.31 1922.89C1183.79 1919.21 1189.77 1915.78 1191.52 1907.73C1193.97 1894.6 1188.71 1875.91 1183.44 1864.36C1141.83 1846.81 1160.18 1882.8 1153.7 1899.76C1152.06 1904.1 1148.81 1907.41 1144.8 1908.8C1128.14 1914.52 1103.95 1916.03 1098.36 1891.42C1096.59 1883.6 1101.09 1873.97 1105.1 1867.79C1116.92 1849.55 1133.73 1843.97 1152.5 1840.99ZM1163.71 2012.22C1171.97 2016.64 1185.68 2015.14 1189.65 2005.73C1197.28 1987.65 1195.48 1951.12 1195.58 1931.69C1170.33 1943.27 1141.94 1952.19 1150.63 1990.8C1152.84 2000.63 1154.85 2007 1163.02 2012.13L1163.71 2012.22Z" fill="#FBF5E9"/>
<path d="M1163.02 2012.13C1154.85 2007 1152.84 2000.63 1150.63 1990.8C1141.94 1952.19 1170.33 1943.27 1195.58 1931.69C1195.48 1951.12 1197.28 1987.65 1189.65 2005.73C1185.68 2015.14 1171.97 2016.64 1163.71 2012.22C1167 2011.69 1171.42 2011.65 1174.84 2011.5L1175.02 2008.66C1177.65 2004.64 1182.84 2004.78 1187.29 2001.35C1188.19 1988.86 1188.2 1962.45 1186.02 1950.37C1180.26 1942.42 1174.7 1951.33 1169.61 1953.18C1147.72 1961.16 1153.34 1989.29 1163.04 2006.4C1162.92 2008.57 1162.95 2009.95 1163.02 2012.13Z" fill="#F0EADE" fill-opacity="0.0666667"/>
<path d="M1125.47 2002.4C1130.97 2001.71 1137.02 2003.94 1137.47 2010.83C1131.92 2009.77 1128.75 2007.18 1125.47 2002.4Z" fill="#FBF5E9"/>
<path d="M1688.69 1847.01C1715.38 1847.81 1742.09 1848.23 1768.79 1848.29C1778.28 1848.29 1797.8 1842.93 1802.86 1852.44C1802.83 1857.1 1803.6 1855.37 1801.44 1858.26C1797.18 1859.73 1782.2 1859.84 1776.94 1860.08C1791.37 1894.25 1810.22 1933.04 1826.03 1966.88C1838.16 1942.58 1848.25 1916.06 1859.05 1890.94C1863.28 1881.07 1867.59 1870.76 1870.94 1860.47C1860.83 1859.55 1850.64 1859.79 1840.74 1858.82C1837.8 1858.53 1838.78 1850.81 1839.79 1848.56C1841.93 1847.11 1900.85 1847.16 1904.74 1847.81C1906.51 1851.47 1906.81 1855.28 1904.99 1858.87C1901.13 1860.97 1897.2 1860.46 1892.79 1860.5C1886.13 1878.33 1875.77 1901.21 1868.08 1918.93C1850.46 1959.55 1832.86 1999.58 1815.68 2040.48C1813.16 2045.29 1810.63 2052.79 1808.37 2058.03C1797.56 2083.17 1788.08 2110.89 1775.44 2134.75C1767.58 2149.57 1749.11 2153.89 1735.11 2152.27C1729.29 2151.21 1727.28 2149.79 1721.22 2150.38C1706.92 2151.77 1691.21 2136.1 1686.09 2121.89C1683.92 2115.88 1685.79 2108.31 1687.95 2103.33C1694.21 2088.84 1717.39 2084.51 1729.09 2091.4C1740.43 2098.81 1737.21 2113.66 1739.66 2125.28C1742.29 2137.74 1755.45 2134.41 1759.48 2125.15C1771.36 2097.76 1783.76 2070.28 1793.83 2041.97C1791.22 2018.75 1761.75 1963.79 1750.81 1939.69C1743.9 1924.6 1737.11 1909.45 1730.42 1894.23C1725.77 1883.54 1720.42 1869.88 1714.99 1860.17C1707.32 1859.53 1690.76 1862.37 1686.94 1855.15C1687.06 1850.82 1687.1 1851.02 1688.69 1847.01Z" fill="#FBF5E9"/>
<path d="M1628.32 1839.71C1638.94 1839.02 1648.7 1838.75 1658.08 1843.27C1691.22 1859.45 1691.64 1905.47 1649.88 1907.15C1614.2 1908.59 1625.21 1891.78 1617.45 1862.85C1574.66 1878.68 1588.02 1942.6 1587.87 1980.72C1587.83 1990.45 1588.65 2003.35 1589.67 2013.06C1605.75 2014.74 1616.71 2015.57 1632.69 2015.57C1632.95 2021.2 1632.96 2026.84 1633.03 2032.47C1620.28 2033.63 1599.08 2032.1 1585.96 2031.51C1567.87 2031.34 1549.78 2031.28 1531.7 2031.35C1519.51 2031.49 1505.06 2032.38 1493.26 2031.34C1493.12 2026.03 1493 2020.72 1492.94 2015.41C1505.14 2015.15 1516.03 2015.43 1528.03 2012.56C1526.74 1995.18 1526.79 1973.28 1526.4 1955.45L1524.01 1857.62C1517.88 1857.21 1503.67 1857.99 1499.83 1853.17C1499.5 1849.78 1499.27 1851.42 1500.89 1848.19C1505.43 1844.35 1572.29 1846.13 1583.11 1846.71C1584.06 1853.26 1584.69 1859.59 1585.36 1866.17C1600.71 1849.55 1607.29 1844.71 1628.32 1839.71Z" fill="#FBF5E9"/>
<path d="M1439.3 1840.64C1450.73 1838.78 1462.2 1840.44 1472.88 1846.31C1494.43 1858.15 1500.77 1898.59 1471.44 1904.58C1429.75 1913.1 1434.99 1898.15 1429.29 1862.27C1425.18 1864.25 1419.8 1866.17 1415.49 1867.86C1395.76 1896.14 1396.35 1910.45 1397.7 1945.35C1398.54 1967.12 1399.72 1990.37 1399.94 2012.15C1414.34 2014.21 1428.85 2015.13 1443.36 2014.93L1443.98 2032.11C1428.97 2031.98 1412.78 2031.01 1397.52 2030.7C1366.9 2030.39 1336.27 2030.53 1305.66 2031.1C1305.72 2026.04 1305.4 2020.08 1305.25 2014.94C1317.57 2013.52 1327.39 2014.46 1340.64 2012.18C1337.13 1966.37 1338.09 1906.67 1336.17 1858.71C1328.92 1857.1 1317.01 1858.11 1312.33 1854.97C1311.69 1851.32 1311.55 1853.02 1312.52 1849.65C1320.64 1845.31 1381.17 1847.08 1394.24 1847.24C1395.14 1853.29 1395.58 1861.48 1396.07 1867.77C1409.57 1852.28 1419.62 1843.93 1439.3 1840.64Z" fill="#FBF5E9"/>
<path d="M554.238 1868.41C558.346 1863.8 562.08 1859.62 566.759 1855.66C583.277 1840.64 617.579 1835.11 633.387 1852.8C656.45 1879.75 642.474 1906.75 610.88 1906.4C594.123 1906.22 588.541 1902.76 588.335 1882.56C587.426 1875.51 586.256 1870.76 584.615 1863.89C581.208 1865.14 575.716 1866.87 573.055 1869.5C561.344 1881.07 556.183 1896.96 556.336 1914.28C555.694 1948.03 558.142 1976.07 559.001 2008.81C572.786 2010.15 585.537 2011.64 599.412 2011.2C600.079 2018.66 601.613 2022.79 596.794 2028.6C590.351 2025.84 544.239 2026.34 533.74 2026.29C513.057 2025.69 490.713 2026.48 469.909 2026.87L469.118 2011.55C481.333 2010.52 489.503 2011.19 502.405 2009.11C502.013 1961.61 498.952 1907.55 497.612 1859.19C493.238 1859.11 488.866 1858.99 484.494 1858.83C480.544 1858.63 477.405 1858.69 474.624 1855.26C474.797 1851.5 474.267 1853.22 476.634 1850.11C490.442 1847.02 537.105 1848.81 552.675 1849.56L554.238 1868.41Z" fill="#FBF5E9"/>
<path d="M1011.55 410.29C1027.6 414.125 1063.76 424.086 1078.04 434.031C1082.04 436.818 1090.42 451.44 1093.43 456.552C1066.78 465.913 1061.89 462.823 1035.18 453.966C1026.83 451.198 1015.92 448.383 1008.06 445.483C1013.09 445.047 1012.93 446.093 1018.48 444.516C1017 441.326 1000.89 439.69 997.153 435.98C999.366 434.568 1000.86 435.341 1003.96 435.585L1002.6 434.608C1001.96 427.651 1001.28 422.115 1002.93 415.168C1006.11 411.826 1005.35 413.952 1010.87 412.751L1011.55 410.29ZM1042.65 444.192L1043.96 445.709C1047.15 445.504 1048.38 445.81 1050.77 443.469C1054.36 431.192 1041 426.597 1034.16 423.227C1031.51 423.801 1028.58 424.071 1026.44 425.762C1028.49 427.331 1027.5 426.653 1030.99 426.285L1029.36 428.8C1030.82 436.12 1038.29 438.441 1042.65 444.192Z" fill="#E4DCCC" fill-opacity="0.0392157"/>
<path d="M1034.16 423.227C1041 426.597 1054.36 431.192 1050.77 443.469C1048.38 445.81 1047.15 445.504 1043.96 445.709L1042.65 444.192C1038.29 438.441 1030.82 436.12 1029.36 428.8L1030.99 426.285C1027.5 426.653 1028.49 427.331 1026.44 425.762C1028.58 424.071 1031.51 423.801 1034.16 423.227Z" fill="#F6D8D8" fill-opacity="0.0509804"/>
<path d="M663.175 1970.51C677.27 1970.09 693.662 1969.64 700.712 1986.69C703.519 1993.51 703.688 2001.34 701.178 2008.3C697.333 2019.13 690.747 2022.3 682.132 2026.27C641.005 2035.5 629.485 1981.89 663.175 1970.51Z" fill="#FBF5E9"/>
<path d="M1490.98 1267.15C1491.09 1272.5 1480.99 1294.04 1478.02 1299.88C1477.98 1299.97 1474.57 1302.4 1474.13 1302.71C1473.58 1305.96 1477.8 1308.1 1470.36 1312.66C1456.77 1321 1448.37 1337.32 1437.31 1350.24L1438.26 1353.82C1436.37 1356.97 1437.58 1355.9 1434.72 1357.4L1432.12 1355.7C1430.14 1358.59 1430.35 1357.12 1430.49 1360.03L1431.92 1361.14C1427.73 1366.76 1424.02 1363.5 1418.96 1369.48C1419.87 1371.07 1419.25 1370.37 1421.48 1370.95C1419.04 1381.22 1411.57 1379.51 1406.56 1383.29L1405.89 1388.67L1404.98 1389.37L1403.85 1386.86C1402.29 1392.47 1397.25 1395.26 1391.69 1397.78C1385.79 1400.45 1381.66 1409.37 1376.63 1412.93C1368.75 1411.59 1353.95 1441.2 1348.97 1439.61L1350.31 1434.81C1348.87 1436.41 1347.23 1438.49 1345.81 1439.96C1339.72 1446.31 1329.52 1444.21 1329.31 1455.71L1327.37 1457.34C1325.73 1456.99 1322.67 1455.94 1321.47 1456.71C1320.08 1466.06 1317.24 1460.67 1313.1 1465.57L1314.24 1468.29C1311.91 1470.31 1309.92 1470.54 1307.07 1471.32L1306.09 1470.86L1307.78 1467.51C1285.03 1473.55 1271.5 1508.47 1234.88 1504.56C1256.3 1491.29 1276.3 1481.53 1298.6 1466.65C1355.39 1428.24 1406.6 1380.23 1450.42 1324.29C1465.76 1304.49 1476.85 1287.49 1490.98 1267.15Z" fill="#F0EADE" fill-opacity="0.0470588"/>
<path d="M1569.51 766.141C1579.51 769.937 1583.5 802.54 1585.42 813.287C1586.16 817.397 1581.66 824.678 1585.24 828.289C1590.46 838.477 1582.96 835.818 1592.56 847.188C1592.88 850.665 1591.55 851.85 1589.41 855.245L1589.66 857.559L1592.53 858.949L1592.83 860.378L1591.04 859.666L1590.19 860.54L1590.99 870.241L1593.55 872.212C1593.35 890.341 1596.56 902.937 1597.34 921.069C1599.21 954.896 1594.96 987.499 1590.67 1020.86C1588.68 1036.43 1580.16 1045.45 1577.34 1060.38C1576.25 1066.13 1573.37 1076.63 1569.14 1080.54C1571.36 1068.42 1574.76 1055.46 1577.1 1042.85C1583.06 1010.71 1587.73 976.167 1587.73 943.299C1588.87 935.739 1588.51 918.885 1588.34 910.624C1587.26 859.308 1580.59 815.624 1569.51 766.141Z" fill="#ECEBD9" fill-opacity="0.027451"/>
<path d="M1038.85 1325.71C1043.84 1342.8 1048.08 1366.89 1051.58 1384.87C1058.99 1423.62 1066.03 1462.46 1072.72 1501.37C1074.6 1512.26 1079.67 1547.55 1082.24 1556.38C1085.14 1557.43 1086.83 1556.74 1089.82 1556.13L1088.03 1558.49C1078.68 1562.51 1068.45 1558.67 1072.55 1547.17L1074.71 1546.48L1074.42 1544.84L1071.68 1544.97C1069.45 1542.44 1054.48 1455.5 1053.69 1443.31C1053.61 1442.2 1056.15 1435.25 1055.67 1430.69L1053.2 1431.98L1053.14 1436.72L1052.29 1437.25L1050.92 1435.56C1052.32 1424.78 1048.82 1421.26 1047.39 1410.48L1050.07 1407.08L1049.74 1405.45L1046.44 1404.87C1041.41 1399.72 1048.1 1395.43 1046.73 1389.29L1043.52 1387.52C1036.94 1367.05 1038.9 1347.08 1038.85 1325.71Z" fill="#F0EADE" fill-opacity="0.0470588"/>
<path d="M1028.56 493.369C1057.14 500.067 1066.08 504.297 1082.79 530.116C1066.52 535.394 1051.85 541.366 1034.95 533.447C1038.09 533.413 1040.06 533.438 1043.22 532.926L1043.76 532.012C1031.92 522.552 1011.72 531.594 1023.14 502.841C1023.38 502.238 1021.64 498.908 1022.51 495.939L1026.89 495.855L1028.56 493.369Z" fill="#E4DCCC" fill-opacity="0.027451"/>
<path d="M619.527 670.131C636.8 670.173 654.073 670.374 671.343 670.734C677.913 670.879 692.627 670.969 698.761 672.076C687.695 673.516 662.155 672.548 650.241 672.424C643 672.29 635.757 672.406 628.522 672.771C634.005 673.747 638.702 672.78 643.093 674.715C640.954 677.14 636.622 675.268 635.877 676.021C633.575 678.348 633.79 688.967 632.337 691.028C630.511 693.618 627.404 693.983 625.901 697.917L626.421 699.568C629.09 700.141 635.311 701.694 637.725 701.953L636.162 703.584C641.157 704.408 646.963 703.884 650.806 705.142L653.185 705.195L654.169 706.492C648.735 707.303 612.328 705.625 604.524 705.377C600.611 704.147 596.486 703.756 592.459 703.325C599.296 702.22 611.897 703.192 619.67 702.705C613.973 702.608 609.383 702.794 603.779 701.479C606.308 701.586 606.156 701.699 608.239 700.116L608.302 697.672C603.803 689.36 590.538 692.733 589.026 698.576L592.99 699.239C590.112 700.908 584.097 699.033 579.821 701.643L580.272 702.713L577.569 702.564C573.986 694.326 583.403 677.52 591.004 673.514L590.133 673.602C594.599 669.77 612.332 671.824 619.527 670.131Z" fill="#F0EADE" fill-opacity="0.101961"/>
<path d="M613.147 601.377C616.791 600.959 620.754 600.772 624.436 600.513C622.72 601.643 621.671 602.313 620.044 603.605C624.634 603.611 628.481 603.8 633.035 604.103L633.753 605.311C630.116 608.24 626.182 609.199 624.409 612.549C625.673 618.902 629.978 622.232 629.768 627.275C627.498 629.084 625.957 628.714 623.141 628.719L622.473 629.516C628.953 633.103 679.165 626.424 692.401 632.594C670.547 633.107 606.472 629.057 591.776 640.499L590.242 640.475C585.49 637.266 584.604 627.47 586.27 621.854C588.791 613.354 594.121 609.414 601.104 606.03L598.741 605.12C602.823 602.379 609.126 605.048 613.147 601.377Z" fill="#ECEBD9" fill-opacity="0.0313725"/>
<path d="M165.93 1949.44C165.076 1928.79 156.855 1791.52 159.7 1779.87C163.163 1781.65 191.225 1856.27 195.104 1866.48L193.7 1865.6C179.337 1856.48 182.806 1838.09 170.744 1825.51L168.938 1824.93C165.78 1829 166.489 1836.8 166.783 1841.85C167.746 1858.38 173.538 1939.18 166.871 1948.27C166.574 1948.67 166.244 1949.05 165.93 1949.44Z" fill="#E4DCCC" fill-opacity="0.0862745"/>
<path d="M988.552 565.189C993.901 565.983 999.188 567.407 1004.47 568.715L1006.07 569.89C1007.89 571.202 1008.1 571.401 1010.3 571.517L1011.76 573.262C1007.89 574.388 1008.78 573.195 1007.32 575.824C1007.53 586.574 1021.8 593.503 1023.57 602.879C1025.81 604.439 1025.17 604.055 1027.68 604.976L1028.07 606.262L1020.76 606.405C1017.48 605.696 1006.46 601.651 1002.74 600.426C990.924 596.578 979.07 592.884 967.181 589.346C972.397 588.538 977.364 590.802 979.95 588.858L978.857 587.198C979.764 582.428 979.879 588.479 981.932 583.554L981.212 582.508L979.186 583.444L978.369 582.527C980.741 580.714 980.048 581.616 981.496 578.901C980.315 575.043 980.697 574.462 981.541 570.689L980.306 568.619C985.148 568.761 986.108 569.828 988.552 565.189Z" fill="#F0EADE" fill-opacity="0.0352941"/>
<path d="M1072.22 352.319C1079.53 354.392 1087.46 356.451 1094.56 359.1C1100.44 365.891 1103.12 372.065 1107.06 380.394C1081.31 392.412 1080.73 392.397 1053.9 382.114C1064.28 381.213 1065.77 381.034 1075.72 382.731L1076.72 381.807C1075.72 378.501 1075.51 376.387 1072.95 374.547L1072.1 375.387C1072.95 370.65 1072.82 366.411 1074.91 361.137C1076.29 357.663 1074.16 355.008 1072.22 352.319Z" fill="#D3CBBD" fill-opacity="0.109804"/>
<path d="M972.975 749.332C978.022 748.692 983.762 749.892 988.321 748.937C983.682 742.304 985.69 727.292 981.985 718.875C979.977 714.309 977.755 715.924 976.431 714.343C978.519 711.215 984.917 718.371 990.649 716.543L989.955 713.18C995.536 714.93 1000.26 716.364 1005.68 718.697C1001.03 723.592 1003.14 718.173 1000.88 722.724C1002.25 732.962 1010.83 749.882 1009.76 753.594C1012.59 755.101 1013.53 755.04 1016.56 755.429C1024.16 755.237 1027.05 754.401 1033.88 751.492C1035.5 751.664 1036.69 751.653 1038.29 751.369L1038.99 754.294C1016.25 762.074 995.767 755.992 972.975 749.332Z" fill="#ECEBD9" fill-opacity="0.0470588"/>
<path d="M575.479 628.625C575.645 620.248 582.915 578.658 584.638 568.051C584.747 571.986 584.486 574.082 586.144 577.555L587.721 577.828C589.538 575.936 589.679 575.918 591.168 573.74C592.792 581.177 591.803 591.681 597.911 596.256L598.054 600.108C602.944 603.647 607.316 600.387 613.146 601.377C609.126 605.048 602.823 602.379 598.741 605.12L601.103 606.03C594.121 609.414 588.79 613.354 586.269 621.854C584.604 627.47 585.49 637.266 590.241 640.475L591.776 640.499L588.736 644.674C585.663 647.41 587.287 646.944 583.936 646.918C581.546 643.243 584.096 638.382 582.322 635.218C579.909 638.44 578.941 639.773 576.137 642.495C574.721 640.597 575.524 632.429 575.479 628.625Z" fill="#E4DCCC" fill-opacity="0.160784"/>
<path d="M1049.93 345.837C1053.49 346.939 1057.56 348.076 1061.03 349.3C1059.74 352.713 1060.71 351.409 1058.11 353.464C1062.73 360.486 1067.26 371.581 1072.1 375.387L1072.95 374.547C1075.51 376.387 1075.72 378.501 1076.72 381.807L1075.72 382.731C1065.77 381.034 1064.28 381.213 1053.9 382.114C1044.97 379.409 1036.07 376.544 1027.22 373.52C1028.63 373.484 1038.21 372.989 1038.37 372.646C1039.74 369.52 1041.92 360.819 1044.72 358.388C1046.62 356.745 1045.96 357.833 1046.53 355.01L1041.41 349.111L1040.12 349.272L1041 353.008L1040.25 352.948C1037.97 349.89 1038.02 351.201 1038.2 348.55C1041.64 347.731 1045.91 350.26 1050.7 349.337L1049.93 345.837Z" fill="#F0EADE" fill-opacity="0.0313725"/>
<path d="M839.828 874.152C831.854 859.769 821.265 841.231 823.458 823.1C826.134 800.957 841.81 804.511 851.071 820.648C848.2 820.826 847.393 820.847 844.5 821.539C844.395 824.448 844.952 825.223 843.229 827.138L840.499 826.063L839.185 827.325C840.162 829.952 840.201 828.704 839.741 831.118C837.926 833.001 834.639 835.49 834.972 837.705C836.737 849.443 841.036 862.173 839.828 874.152Z" fill="#FBF5E9" fill-opacity="0.01"/>
<path d="M1030.48 650.169C1037.54 652.891 1042.12 656.229 1046.28 663.519L1041.94 661.489C1038.87 665.144 1042.04 671.058 1037.7 675.288C1033.75 679.152 1029.79 676.813 1026.49 681.453L1026.44 681.827C1030.61 682.488 1035.03 682.629 1039.26 682.882C1027.44 686.436 1016.32 681.577 1005.27 677.284C1008.89 677.054 1010.48 677.658 1014.58 677.136L1013.57 675.798C1015.14 674.344 1014.6 674.928 1015.59 672.766C1015.45 666.373 1015.35 663.047 1017.73 657.303C1020.63 656.147 1022.84 655.931 1025.85 655.439C1028.41 653.282 1028.71 653.285 1030.48 650.169Z" fill="#C2BBAF" fill-opacity="0.164706"/>
<path d="M767.008 1211.69L764.715 1209.89C762.067 1209.79 762.817 1210.26 760.812 1208.93C762.995 1206.79 764.772 1205.59 765.614 1202.55C760.336 1194.11 745.1 1184.14 740.859 1175.03C732.977 1158.1 726.782 1137.07 730.172 1118.31C730.427 1116.91 725.535 1112.37 726.097 1108.14C728.752 1105.81 731.502 1106.39 735.036 1106.38C729.343 1157.28 743.379 1187.07 786.064 1206.04C778.064 1207.6 774.753 1208.72 767.008 1211.69Z" fill="#F0EADE" fill-opacity="0.988235"/>
<path d="M980.181 633.208C990.16 636.182 999.65 639.029 1009.52 642.482C1008.42 644.524 1008.69 644.573 1006.87 645.783C1006.39 649.224 1009.77 664.636 1007.97 673.299C1010.36 674.787 1010.22 673.998 1010.89 675.935L1002.27 676.44C998.539 675.459 995.696 674.379 992.053 673.016C995.092 673.058 996.904 673.273 999.881 672.399C1002.32 669.552 1001.56 671.177 1002.33 667.393C998.708 660.645 991.484 659.688 986.188 654.176C989.04 646.174 985.228 651.013 986.623 644.42L988.738 643.942L987.859 642.686C983.007 641.91 983.416 642.263 981.407 637.621L980.181 633.208Z" fill="#ECEBD9" fill-opacity="0.0431373"/>
<path d="M1174.16 842.848C1176.69 844.642 1177.21 844.889 1180 846.159C1181.98 849.608 1190.31 866.7 1190.15 866.448L1183.77 904.556L1182.41 900.335C1173.52 899.241 1182.47 877.096 1175.48 873.774L1172.15 876.313C1173.93 864.397 1174.14 854.869 1174.16 842.848Z" fill="#D0D0D0"/>
<path d="M350.268 1824.83C351.898 1837.78 351.094 1853.53 351.907 1866.86C354.15 1903.67 353.517 1943.28 355.829 1979.75L355.361 1979.4C346.565 1972.86 351.308 1953.25 350.356 1941.79C350.878 1933.5 347.688 1920.85 348.487 1913.16C351.401 1885.09 347.53 1852.05 350.268 1824.83Z" fill="#F0EADE" fill-opacity="0.0117647"/>
<path d="M1124.7 969.541C1135.47 961.51 1139.35 957.483 1148.2 946.78C1152.34 948.824 1150.88 947.253 1153.05 951.308C1153.2 955.423 1152.45 956.832 1151.19 960.647L1151.41 961.638C1152.33 965.878 1152.34 966.106 1152.05 970.378C1146.28 975.218 1141.42 979.252 1134.77 982.54L1131.56 979.898C1131.67 976.812 1131.21 976.695 1129.75 973.936C1127.07 972.593 1126.59 971.891 1124.7 969.541Z" fill="#C8C2B7" fill-opacity="0.188235"/>
<path d="M605.892 433.448C608.491 435.329 609.695 435.355 610.065 439.039C611.81 456.43 597.774 478.422 609.293 492.911C609.374 494.154 609.359 493.444 609.271 495.043L609.421 492.877L611.136 490.392C611.082 492.46 611.093 496.699 610.789 498.545C609.199 502.954 608.787 504.653 608.394 509.386C599.336 499.03 598.887 497.038 598.312 482.786C600.908 466.853 602.715 449.072 605.892 433.448Z" fill="#FCFACE" fill-opacity="0.0156863"/>
<path d="M556.335 1914.28C556.182 1896.96 561.343 1881.07 573.055 1869.5C575.715 1866.87 581.208 1865.14 584.615 1863.89C586.256 1870.76 587.426 1875.51 588.335 1882.56L584.274 1882.95L583.305 1881.99C580.923 1879.65 579.923 1878.04 576.882 1877.82C568.716 1883.37 562.703 1900.9 560.3 1910.76C558.646 1912.37 558.145 1912.91 556.335 1914.28Z" fill="#FBF5E9" fill-opacity="0.0156863"/>
<path d="M1032.8 1832.13C1032.87 1851.15 1027.67 1845.61 1014.92 1853.87C1013.38 1854.87 1007.62 1864.1 1005.93 1866.04C1000.35 1868.34 1002.05 1865.22 998.006 1871.02C996.282 1870.11 984.215 1866.93 980.465 1865.64C1002.45 1855.04 1015.22 1850.69 1032.8 1832.13Z" fill="#F0EADE" fill-opacity="0.0196078"/>
<path d="M1012.06 720.601C1015.5 722.023 1024.28 725.426 1027.07 727.126C1024.69 728.359 1024.37 728.408 1022.18 730.018C1029.74 733 1034.5 738.411 1029.52 747.328C1027.28 748.758 1025.34 749.921 1023.04 751.23C1018.28 747.195 1016.98 744.62 1011.83 744.129C1000.91 737.743 1013.81 729.636 1012.06 720.601Z" fill="#C2BEB6" fill-opacity="0.192157"/>
<path d="M637.726 701.953C635.311 701.694 629.09 700.141 626.421 699.568L625.901 697.917C627.405 693.983 630.511 693.618 632.337 691.028C633.79 688.967 633.575 678.348 635.878 676.021C636.622 675.268 640.954 677.14 643.094 674.715C638.702 672.78 634.005 673.747 628.523 672.771C635.758 672.406 643 672.29 650.241 672.424C652.219 673.732 653.854 674.921 656.003 675.867L656.571 677.27C655.054 678.473 655.029 678.437 654.014 680.305C653.895 687.66 654.734 695.1 650.581 700.552C648.156 701.304 647.179 701.491 644.866 702.68C647.58 704.691 647.987 703.617 650.807 705.142C646.963 703.884 641.157 704.408 636.163 703.584L637.726 701.953L642.355 701.846C641.667 696.916 648.131 681.139 650.872 676.897L650.319 675.083L648.231 674.468C647.584 675.005 646.794 675.764 645.667 676.419C644.075 677.344 640.836 679.569 639.817 681.109L639.112 689.067C636.628 693.191 635.145 694.47 633.897 699.289C635.892 700.016 636.385 700.122 637.726 701.953Z" fill="#FCFACE" fill-opacity="0.0313725"/>
<path d="M740.651 798.41C752.708 804.506 758.437 805.462 769.598 814.938C756.305 815.882 740.784 814.833 740.4 833.511C740.006 832.813 739.625 832.106 739.254 831.392C733.798 820.775 737.899 809.943 740.651 798.41Z" fill="#E4DCCC" fill-opacity="0.054902"/>
<path d="M323.987 2027C333.779 2024.73 420.821 2024.23 430.482 2026.03C421.421 2027.64 395.467 2024.53 389.645 2029.14C389.228 2029.47 388.899 2029.93 388.468 2030.24C382.341 2034.57 345.63 2031.66 337.425 2030.2L338.055 2030.05C331.833 2027.73 328.156 2029.11 323.987 2027Z" fill="#F0EADE" fill-opacity="0.0745098"/>
<path d="M902.892 2030.58C918.886 2032.64 944.851 2029.42 959.477 2031.6L958.286 2032.85C949.8 2032.88 933.139 2040.36 924.564 2038.48C922.645 2035.9 922.076 2034.88 919.508 2033.02C916.025 2033.08 915.741 2032.49 912.915 2034.87C906.606 2040.19 894.646 2035.55 887.219 2034.39C881.121 2033.43 874.462 2032.25 868.101 2031.26C875.802 2030.24 893.375 2031.09 902.892 2030.58Z" fill="#F0EADE" fill-opacity="0.0196078"/>
<path d="M981.585 669.87L990.098 669.434C986.304 665.097 979.897 663.694 976.058 659.438L979.088 657.782C982.412 649.474 977.711 643.749 978.848 637.498L981.407 637.621C983.416 642.263 983.007 641.91 987.859 642.686L988.738 643.942L986.623 644.42C985.228 651.013 989.04 646.174 986.188 654.176C991.484 659.688 998.708 660.645 1002.33 667.393C1001.56 671.177 1002.32 669.552 999.881 672.399C996.904 673.273 995.092 673.058 992.053 673.016C990.071 672.689 983.833 670.567 981.585 669.87Z" fill="#F0EADE" fill-opacity="0.0313725"/>
<path d="M759.855 821.16C761.499 822.539 762.968 823.635 764.684 824.903C766.559 824.019 765.609 824.362 767.529 823.859L768.317 827.739C771.688 828.374 771.444 828.406 774.604 826.947L780.962 837.714L777.878 839.972C770.504 837.745 762.185 825.534 753.753 831.235C751.45 832.791 746.935 843.687 746.411 846.118L742.979 839.256C743.159 837.082 747.904 822.34 749.008 821.046C752.675 820.989 756.188 821.07 759.855 821.16Z" fill="#F6D8D8" fill-opacity="0.027451"/>
<path d="M746.411 846.118C746.935 843.687 751.45 832.791 753.753 831.235C762.185 825.534 770.504 837.745 777.878 839.972L780.962 837.714L784.699 843.997C781.994 845.578 781.809 845.931 780.224 848.864L778.399 849.584L777.169 848.365C777.02 845.506 777.118 844.881 775.705 842.497C770.918 838.8 767.153 841.904 762.781 844.842C759.128 840.967 759.904 842.744 755.16 841.17C753.394 845.332 752.31 851.896 751.711 856.525L746.411 846.118Z" fill="#FCFACE" fill-opacity="0.0156863"/>
<path d="M1124.7 969.541C1126.59 971.891 1127.07 972.593 1129.75 973.936C1131.21 976.695 1131.67 976.812 1131.56 979.898L1134.77 982.54C1125.2 986.475 1113.77 990.083 1104.88 994.444C1103.22 991.15 1100.41 990.387 1097.23 988.913L1101.99 986.314L1103.69 987.272C1107.99 983.805 1110.98 984.435 1114.38 979.603L1114.12 978.525L1110.47 978.021C1115.68 975.287 1119.71 972.724 1124.7 969.541Z" fill="#F0EADE" fill-opacity="0.0470588"/>
<path d="M1039.26 682.882C1035.03 682.629 1030.61 682.488 1026.44 681.827L1026.49 681.453C1029.79 676.813 1033.75 679.152 1037.7 675.288C1042.04 671.058 1038.87 665.144 1041.94 661.489L1046.28 663.519C1049.77 667.562 1054.22 674.124 1057.23 678.773C1052.97 679.766 1043.16 682.388 1039.26 682.882Z" fill="#E4DCCC" fill-opacity="0.0705882"/>
<path d="M346.949 1753.99C348.302 1764.23 348.574 1772.01 348.931 1782.29L346.867 1782.84C344.763 1787.35 345.128 1788.9 345.084 1794.21L343.76 1796.46L341.099 1796.73C336.971 1791.92 341.487 1790.05 336.128 1786.56C339.322 1775.71 343.277 1764.69 346.949 1753.99Z" fill="#F0EADE" fill-opacity="0.0117647"/>
<path d="M533.74 2026.29C544.239 2026.34 590.351 2025.84 596.794 2028.6C593.403 2030.64 543.671 2032.87 538.032 2031.54L538.535 2029C535.959 2028.27 535.964 2028.04 533.74 2026.29Z" fill="#ECEBD9" fill-opacity="0.0235294"/>
<path d="M1201.54 1520.33C1212.28 1515.49 1223.65 1509.45 1234.24 1505.01C1234.06 1508.85 1234.65 1509.65 1232.95 1512.1C1229.46 1512.8 1230.42 1511.88 1228.3 1514L1229.11 1516.45C1215.55 1530.81 1214.19 1521.53 1201.54 1520.33Z" fill="#FBF5E9" fill-opacity="0.0156863"/>
<path d="M740.4 833.511C740.785 814.833 756.306 815.882 769.598 814.938L774.604 826.947C771.444 828.406 771.688 828.374 768.317 827.739L767.529 823.859C765.609 824.362 766.559 824.019 764.684 824.903C762.968 823.635 761.499 822.539 759.855 821.16C756.188 821.07 752.675 820.989 749.008 821.046C747.904 822.34 743.159 837.082 742.979 839.256L740.4 833.511Z" fill="#F0EADE" fill-opacity="0.0431373"/>
<path d="M1061.03 349.3C1065.01 350.237 1068.31 351.091 1072.22 352.319C1074.16 355.008 1076.29 357.663 1074.91 361.137C1072.82 366.411 1072.95 370.65 1072.1 375.387C1067.26 371.581 1062.73 360.486 1058.11 353.464C1060.71 351.409 1059.74 352.713 1061.03 349.3Z" fill="#E4DCCC" fill-opacity="0.0627451"/>
<path d="M1027.07 727.126C1034.05 730.389 1042.76 743.032 1043.07 751.439C1041.22 754.198 1042.4 753.07 1038.99 754.294L1038.29 751.369C1036.69 751.653 1035.5 751.664 1033.88 751.492C1030.39 751.097 1026.57 751.223 1023.04 751.23C1025.34 749.921 1027.28 748.758 1029.52 747.328C1034.5 738.411 1029.74 733 1022.18 730.018C1024.37 728.408 1024.69 728.359 1027.07 727.126Z" fill="#C2BEB6" fill-opacity="0.176471"/>
<path d="M117.421 2026.02C135.731 2025.24 154.056 2025.05 172.375 2025.43C170.681 2027.81 170.18 2028.22 168.982 2030.98L167.108 2031.82L166.136 2030.02C163.101 2032.89 155.598 2032 151.746 2031.17L151.271 2029.65C146.994 2026.01 125.304 2029.85 118.888 2028.51C118.399 2027.68 117.91 2026.85 117.421 2026.02Z" fill="#F0EADE" fill-opacity="0.0117647"/>
<path d="M1005.68 718.697L1012.06 720.601C1013.81 729.636 1000.91 737.743 1011.83 744.129C1013.22 747.702 1014.38 749.023 1014.11 752.376L1013.47 753.426C1014.53 754.145 1015.46 754.78 1016.56 755.429C1013.53 755.04 1012.59 755.101 1009.76 753.594C1010.83 749.882 1002.25 732.962 1000.88 722.724C1003.14 718.173 1001.03 723.592 1005.68 718.697Z" fill="#F0EADE" fill-opacity="0.113725"/>
<path d="M1009.52 642.482L1019.02 645.839C1017.64 648.985 1018.71 647.904 1016.22 649.622C1012.13 660.146 1010.78 663.867 1013.57 675.798L1014.58 677.136C1010.48 677.658 1008.89 677.054 1005.27 677.284L1002.27 676.44L1010.89 675.935C1010.22 673.998 1010.36 674.787 1007.97 673.299C1009.77 664.636 1006.39 649.224 1006.87 645.783C1008.69 644.573 1008.42 644.524 1009.52 642.482Z" fill="#E4DCCC" fill-opacity="0.0705882"/>
<path d="M331.634 1799.97L332.622 1805.56C334.671 1803.71 334.814 1802.57 336.119 1799.8C340.271 1805.09 326.747 1820.84 329.392 1828.04C329.822 1829.21 328.966 1831.18 328.401 1832.3C326.098 1834.55 323.959 1834.59 320.914 1835.22C323.975 1823.78 328.105 1811.34 331.634 1799.97Z" fill="#F0EADE" fill-opacity="0.0117647"/>
<path d="M648.231 674.468L650.318 675.083L650.872 676.897C648.131 681.139 641.666 696.916 642.355 701.846L637.725 701.953C636.384 700.122 635.891 700.016 633.896 699.289C635.145 694.47 636.628 693.191 639.112 689.067L639.817 681.109C640.835 679.569 644.074 677.344 645.667 676.419C646.793 675.764 647.583 675.005 648.231 674.468Z" fill="#ECEBD9" fill-opacity="0.0470588"/>
<path d="M580.272 702.713L579.821 701.643C584.097 699.033 590.112 700.908 592.991 699.239L589.026 698.576C590.538 692.733 603.803 689.36 608.303 697.672L608.24 700.116C606.156 701.699 606.308 701.586 603.779 701.479C609.383 702.794 613.973 702.608 619.67 702.705C611.897 703.192 599.296 702.22 592.459 703.325L580.272 702.713Z" fill="#F0EADE" fill-opacity="0.0784314"/>
<path d="M1019.02 645.839C1022.87 647.206 1026.69 648.65 1030.48 650.169C1028.71 653.285 1028.41 653.282 1025.85 655.439C1022.84 655.931 1020.63 656.147 1017.73 657.303C1015.35 663.047 1015.45 666.373 1015.59 672.766C1014.6 674.928 1015.14 674.344 1013.57 675.798C1010.78 663.867 1012.13 660.146 1016.22 649.622C1018.71 647.904 1017.64 648.985 1019.02 645.839Z" fill="#F0EADE" fill-opacity="0.121569"/>
<path d="M1011.83 744.129C1016.98 744.62 1018.28 747.195 1023.04 751.23C1026.57 751.223 1030.39 751.097 1033.88 751.492C1027.05 754.401 1024.16 755.237 1016.56 755.429C1015.46 754.78 1014.53 754.145 1013.47 753.426L1014.11 752.376C1014.38 749.023 1013.22 747.702 1011.83 744.129Z" fill="#E4DCCC" fill-opacity="0.14902"/>
<path d="M904.047 914.229C901.355 914.837 901.097 915.621 898.609 916.84C895.774 915.107 893.935 912.541 894.148 908.715C897.596 909.707 897.036 911.023 900.137 912.694L900.875 908.341L904.047 914.229Z" fill="#F0EADE" fill-opacity="0.01"/>
</svg>
